<svg xmlns="http://www.w3.org/2000/svg" viewBox="0 0 1200 360" role="img" aria-label="White hospital wristband template">
  <defs>
    <linearGradient id="bandFace" x1="0" y1="0" x2="0" y2="1">
      <stop offset="0" stop-color="#ffffff"/>
      <stop offset="0.56" stop-color="#f9fbf8"/>
      <stop offset="1" stop-color="#edf2ec"/>
    </linearGradient>
    <linearGradient id="loopFace" x1="0" y1="0" x2="0" y2="1">
      <stop offset="0" stop-color="#ffffff"/>
      <stop offset="1" stop-color="#e9eee7"/>
    </linearGradient>
    <filter id="shadow" x="-10%" y="-20%" width="120%" height="150%">
      <feDropShadow dx="0" dy="20" stdDeviation="18" flood-color="#1b2632" flood-opacity="0.18"/>
    </filter>
    <filter id="softInset">
      <feGaussianBlur stdDeviation="1.2"/>
    </filter>
  </defs>

  <ellipse cx="600" cy="326" rx="390" ry="22" fill="#000" opacity="0.13"/>

  <g filter="url(#shadow)">
    <path d="M122 166 C210 70 986 70 1078 166 L986 190 C864 126 338 126 214 190 Z"
          fill="url(#loopFace)"/>
    <path d="M122 166 C210 70 986 70 1078 166 L986 190 C864 126 338 126 214 190 Z"
          fill="none" stroke="#dbe3da" stroke-width="2" opacity="0.75"/>

    <g fill="#050505">
      <ellipse cx="255" cy="150" rx="10" ry="17" transform="rotate(8 255 150)"/>
      <ellipse cx="345" cy="132" rx="10" ry="17" transform="rotate(4 345 132)"/>
      <ellipse cx="445" cy="122" rx="10" ry="17"/>
      <ellipse cx="555" cy="118" rx="10" ry="17"/>
      <ellipse cx="665" cy="118" rx="10" ry="17"/>
      <ellipse cx="775" cy="124" rx="10" ry="17" transform="rotate(-4 775 124)"/>
      <ellipse cx="875" cy="136" rx="10" ry="17" transform="rotate(-7 875 136)"/>
      <ellipse cx="965" cy="154" rx="10" ry="17" transform="rotate(-10 965 154)"/>
    </g>
    <g fill="#ffffff" opacity="0.54" filter="url(#softInset)">
      <ellipse cx="255" cy="150" rx="15" ry="22" transform="rotate(8 255 150)"/>
      <ellipse cx="345" cy="132" rx="15" ry="22" transform="rotate(4 345 132)"/>
      <ellipse cx="445" cy="122" rx="15" ry="22"/>
      <ellipse cx="555" cy="118" rx="15" ry="22"/>
      <ellipse cx="665" cy="118" rx="15" ry="22"/>
      <ellipse cx="775" cy="124" rx="15" ry="22" transform="rotate(-4 775 124)"/>
      <ellipse cx="875" cy="136" rx="15" ry="22" transform="rotate(-7 875 136)"/>
      <ellipse cx="965" cy="154" rx="15" ry="22" transform="rotate(-10 965 154)"/>
    </g>

    <path d="M78 168
             C164 135 290 146 405 169
             C448 128 752 128 795 169
             C910 146 1036 135 1122 168
             C1166 185 1166 263 1122 282
             C1036 319 902 303 790 278
             C746 313 454 313 410 278
             C298 303 164 319 78 282
             C34 263 34 185 78 168 Z"
          fill="url(#bandFace)"/>
    <path d="M78 168
             C164 135 290 146 405 169
             C448 128 752 128 795 169
             C910 146 1036 135 1122 168
             C1166 185 1166 263 1122 282
             C1036 319 902 303 790 278
             C746 313 454 313 410 278
             C298 303 164 319 78 282
             C34 263 34 185 78 168 Z"
          fill="none" stroke="#dce5dc" stroke-width="2"/>
    <path d="M98 181 C190 158 302 171 408 190 C460 156 740 156 792 190 C898 171 1010 158 1102 181"
          fill="none" stroke="#ffffff" stroke-width="15" opacity="0.55" stroke-linecap="round"/>
    <path d="M418 174 C462 148 738 148 782 174 C746 198 454 198 418 174 Z"
          fill="#ffffff" opacity="0.38"/>
  </g>
</svg>
